<?xml version="1.0" standalone="no"?>
<!DOCTYPE svg PUBLIC "-//W3C//DTD SVG 20010904//EN"
 "http://www.w3.org/TR/2001/REC-SVG-20010904/DTD/svg10.dtd">
<svg version="1.0" xmlns="http://www.w3.org/2000/svg"
 width="118.000000pt" height="118.000000pt" viewBox="0 0 118.000000 118.000000"
 preserveAspectRatio="xMidYMid meet">

<g transform="translate(0.000000,118.000000) scale(0.100000,-0.100000)"
fill="#000000" stroke="none">
<path d="M882 1119 c-44 -22 -158 -140 -207 -214 -15 -22 -37 -51 -50 -65 -35
-38 -135 -198 -175 -279 -19 -39 -40 -71 -46 -71 -6 0 -25 21 -42 48 -101 157
-193 208 -257 145 -38 -39 -32 -97 18 -152 49 -54 93 -152 123 -273 28 -115
63 -184 100 -199 43 -16 99 -11 128 12 26 20 66 87 66 109 0 18 49 137 90 220
90 183 150 265 336 460 135 142 147 179 84 248 -25 27 -36 32 -77 32 -29 0
-65 -9 -91 -21z m160 -50 c14 -18 17 -33 12 -53 -4 -17 -70 -95 -158 -190 -83
-88 -164 -177 -178 -197 -42 -54 -107 -176 -138 -259 -87 -229 -116 -276 -181
-286 -52 -9 -77 17 -89 92 -11 65 -73 228 -117 303 -14 25 -41 63 -60 84 -18
20 -33 47 -33 59 0 52 61 74 120 43 26 -14 140 -157 140 -177 0 -12 47 -29 63
-22 7 2 29 37 49 77 20 40 51 92 69 117 18 25 55 77 80 117 26 39 63 88 81
110 19 21 48 58 65 83 33 48 85 100 118 119 11 6 47 10 79 8 50 -2 62 -6 78
-28z"/>
</g>
</svg>
