<?xml version="1.0" encoding="UTF-8"?>
<!DOCTYPE svg PUBLIC "-//W3C//DTD SVG 1.1//EN" "http://www.w3.org/Graphics/SVG/1.1/DTD/svg11.dtd">
<svg xmlns="http://www.w3.org/2000/svg" version="1.1" width="118px" height="118px" style="shape-rendering:geometricPrecision; text-rendering:geometricPrecision; image-rendering:optimizeQuality; fill-rule:evenodd; clip-rule:evenodd" xmlns:xlink="http://www.w3.org/1999/xlink">
<g><path style="opacity:0.698" fill="#ecf2f0" d="M 107.5,23.5 C 94.296,31.5337 83.1293,41.8671 74,54.5C 73.235,56.0657 73.4017,57.3991 74.5,58.5C 85.1339,68.3011 95.3005,78.6345 105,89.5C 107.95,94.1468 108.117,98.8135 105.5,103.5C 100.768,107.53 96.1009,107.364 91.5,103C 85.88,96.2581 80.38,89.4248 75,82.5C 70.3552,77.6897 65.3552,73.3564 60,69.5C 48.488,80.0125 37.3214,90.8458 26.5,102C 21.9945,103.962 17.3278,104.629 12.5,104C 11.6266,102.955 10.6266,102.122 9.5,101.5C 7.86269,100.026 6.86269,98.1923 6.5,96C 7.32727,92.5122 8.82727,89.3456 11,86.5C 21.0993,76.5587 31.5993,67.2254 42.5,58.5C 43.5983,57.3991 43.765,56.0657 43,54.5C 35.3283,45.6618 27.1616,37.3285 18.5,29.5C 15.272,20.5391 18.6053,16.7058 28.5,18C 32.6153,19.2235 36.282,21.2235 39.5,24C 44.4459,28.9459 49.4459,33.9459 54.5,39C 56.1667,39.6667 57.8333,39.6667 59.5,39C 68.6207,28.4385 79.2874,19.7718 91.5,13C 98.4464,7.52929 104.28,8.36262 109,15.5C 109.891,18.4976 109.391,21.1643 107.5,23.5 Z"/></g>
<g><path style="opacity:1" fill="#86b4a6" d="M 71.5,54.5 C 70.7784,54.9175 70.2784,55.5842 70,56.5C 69.3164,50.8285 71.6497,46.8285 77,44.5C 81.486,38.3503 86.3193,32.5169 91.5,27C 95.4474,25.2062 98.7807,22.7062 101.5,19.5C 101.392,18.5581 101.059,17.7247 100.5,17C 94.4341,16.5345 89.4341,18.7011 85.5,23.5C 76.7155,27.7729 69.2155,33.7729 63,41.5C 62.5357,40.9056 62.369,40.2389 62.5,39.5C 72.9766,27.3475 85.6432,18.3475 100.5,12.5C 105.844,13.3455 107.677,16.3455 106,21.5C 92.3029,30.3673 80.8029,41.3673 71.5,54.5 Z"/></g>
<g><path style="opacity:0.234" fill="#030303" d="M 107.5,23.5 C 107.66,25.1992 107.494,26.8659 107,28.5C 94.3901,36.6113 83.5568,46.6113 74.5,58.5C 73.4017,57.3991 73.235,56.0657 74,54.5C 83.1293,41.8671 94.296,31.5337 107.5,23.5 Z"/></g>
<g><path style="opacity:0.229" fill="#030303" d="M 18.5,29.5 C 27.1616,37.3285 35.3283,45.6618 43,54.5C 43.765,56.0657 43.5983,57.3991 42.5,58.5C 35.5632,51.0618 28.3966,43.7285 21,36.5C 19.0972,34.559 18.2639,32.2257 18.5,29.5 Z"/></g>
<g><path style="opacity:1" fill="#b2dfd2" d="M 85.5,23.5 C 87.604,23.2011 89.604,23.5344 91.5,24.5C 83.1504,32.0161 75.3171,40.0161 68,48.5C 66.6908,53.0658 66.1908,57.7325 66.5,62.5C 62.0329,62.1326 57.6996,62.6326 53.5,64C 47.4375,69.9751 41.2708,75.8084 35,81.5C 33.9055,83.0779 33.0722,84.7446 32.5,86.5C 28.8038,92.3532 23.4704,95.6865 16.5,96.5C 21.2724,84.5687 29.6057,75.7354 41.5,70C 44,67.5 46.5,65 49,62.5C 49.8253,58.7887 49.6586,55.122 48.5,51.5C 45.9398,49.3879 43.6064,47.0546 41.5,44.5C 41.1077,42.8211 40.6077,41.1545 40,39.5C 36.0342,36.536 32.3675,33.2026 29,29.5C 28.4092,28.5165 28.7425,27.8499 30,27.5C 35.4891,31.6525 40.9891,35.8191 46.5,40C 51.71,48.6484 58.0433,49.6484 65.5,43C 72.0916,36.2462 78.7583,29.7462 85.5,23.5 Z"/></g>
<g><path style="opacity:1" fill="#9ecdc0" d="M 85.5,23.5 C 78.7583,29.7462 72.0916,36.2462 65.5,43C 58.0433,49.6484 51.71,48.6484 46.5,40C 40.9891,35.8191 35.4891,31.6525 30,27.5C 28.7425,27.8499 28.4092,28.5165 29,29.5C 32.3675,33.2026 36.0342,36.536 40,39.5C 40.6077,41.1545 41.1077,42.8211 41.5,44.5C 36.5639,39.062 31.3972,33.7286 26,28.5C 25.51,27.2068 25.3433,25.8734 25.5,24.5C 29.0459,24.5589 32.3792,25.3923 35.5,27C 41.383,33.3855 47.7164,39.2189 54.5,44.5C 55.2975,44.0431 55.6309,43.3764 55.5,42.5C 58.4534,42.8504 60.7867,41.8504 62.5,39.5C 62.369,40.2389 62.5357,40.9056 63,41.5C 69.2155,33.7729 76.7155,27.7729 85.5,23.5 Z"/></g>
<g><path style="opacity:0.232" fill="#030303" d="M 105.5,103.5 C 105.026,110.211 101.693,112.711 95.5,111C 92.7047,109.207 90.2047,107.04 88,104.5C 80.9994,92.5008 71.6661,82.8341 60,75.5C 59.1667,75.6667 58.3333,75.8333 57.5,76C 46.7792,86.7208 36.1126,97.3874 25.5,108C 19.0679,112.067 13.5679,111.234 9,105.5C 8.23502,103.934 8.40168,102.601 9.5,101.5C 10.6266,102.122 11.6266,102.955 12.5,104C 17.3278,104.629 21.9945,103.962 26.5,102C 37.3214,90.8458 48.488,80.0125 60,69.5C 65.3552,73.3564 70.3552,77.6897 75,82.5C 80.38,89.4248 85.88,96.2581 91.5,103C 96.1009,107.364 100.768,107.53 105.5,103.5 Z"/></g>
<g><path style="opacity:1" fill="#a3d1c4" d="M 71.5,54.5 C 71.1658,57.188 71.8325,59.5214 73.5,61.5C 72.2334,60.913 71.2334,60.913 70.5,61.5C 71.2485,63.3325 72.2485,64.9991 73.5,66.5C 81.136,74.9686 89.3027,82.9686 98,90.5C 98.4955,92.4727 98.6621,94.4727 98.5,96.5C 89.6659,93.1711 83.1659,87.1711 79,78.5C 74.4049,74.4496 69.9049,70.2829 65.5,66C 61.5,64 57.5,64 53.5,66C 46.6048,73.0633 39.6048,79.8967 32.5,86.5C 33.0722,84.7446 33.9055,83.0779 35,81.5C 41.2708,75.8084 47.4375,69.9751 53.5,64C 57.6996,62.6326 62.0329,62.1326 66.5,62.5C 66.1908,57.7325 66.6908,53.0658 68,48.5C 75.3171,40.0161 83.1504,32.0161 91.5,24.5C 89.604,23.5344 87.604,23.2011 85.5,23.5C 89.4341,18.7011 94.4341,16.5345 100.5,17C 101.059,17.7247 101.392,18.5581 101.5,19.5C 98.7807,22.7062 95.4474,25.2062 91.5,27C 86.3193,32.5169 81.486,38.3503 77,44.5C 71.6497,46.8285 69.3164,50.8285 70,56.5C 70.2784,55.5842 70.7784,54.9175 71.5,54.5 Z"/></g>
<g><path style="opacity:1" fill="#8ab8aa" d="M 55.5,42.5 C 55.6309,43.3764 55.2975,44.0431 54.5,44.5C 47.7164,39.2189 41.383,33.3855 35.5,27C 32.3792,25.3923 29.0459,24.5589 25.5,24.5C 25.3433,25.8734 25.51,27.2068 26,28.5C 31.3972,33.7286 36.5639,39.062 41.5,44.5C 43.6064,47.0546 45.9398,49.3879 48.5,51.5C 49.6586,55.122 49.8253,58.7887 49,62.5C 46.5,65 44,67.5 41.5,70C 29.6057,75.7354 21.2724,84.5687 16.5,96.5C 23.4704,95.6865 28.8038,92.3532 32.5,86.5C 39.6048,79.8967 46.6048,73.0633 53.5,66C 57.5,64 61.5,64 65.5,66C 69.9049,70.2829 74.4049,74.4496 79,78.5C 83.1659,87.1711 89.6659,93.1711 98.5,96.5C 98.6621,94.4727 98.4955,92.4727 98,90.5C 89.3027,82.9686 81.136,74.9686 73.5,66.5C 72.2485,64.9991 71.2485,63.3325 70.5,61.5C 71.2334,60.913 72.2334,60.913 73.5,61.5C 83.8006,70.9679 93.6339,80.9679 103,91.5C 103.789,95.0915 103.622,98.5915 102.5,102C 100.305,103.373 97.9712,103.706 95.5,103C 86.8702,92.7016 77.8702,82.7016 68.5,73C 66.208,71.7101 64.208,70.0435 62.5,68C 60.5,67.3333 58.5,67.3333 56.5,68C 45.5541,78.9459 34.5541,89.9459 23.5,101C 13.2179,104.716 9.05125,101.216 11,90.5C 22.008,79.826 33.3414,69.4927 45,59.5C 45.6667,57.5 45.6667,55.5 45,53.5C 42.3333,50.1667 39.6667,46.8333 37,43.5C 29.9272,38.2625 24.0939,31.9291 19.5,24.5C 20.2622,21.8548 22.0956,20.5214 25,20.5C 27.9559,20.9469 30.7892,21.7803 33.5,23C 40.7045,29.7081 48.0379,36.2081 55.5,42.5 Z"/></g>
</svg>
